# xmcd
#
# Track frame offsets:
#	150
#	17017
#	30315
#	45025
#	60681
#	74443
#	89414
#	104547
#	122763
#	134378
#	155458
#
# Disc length: 2308 seconds
#
# Revision: 0
# Processed by: cddbd v1.5.1PL0 Copyright (c) Steve Scherf et al.
# Submitted via: dBpowerAMP V4.0
#
DISCID=8909020b
DTITLE=Various Artist - O zolnierzach
DYEAR=1900
DGENRE=Undefined
TTITLE0=O zolnierzach 1
TTITLE1=O zolnierzach 2
TTITLE2=O zolnierzach 3
TTITLE3=O zolnierzach 4
TTITLE4=O zolnierzach 5
TTITLE5=O zolnierzach 6
TTITLE6=O zolnierzach 7
TTITLE7=O zolnierzach 8
TTITLE8=O zolnierzach 9
TTITLE9=O zolnierzach 10
TTITLE10=O zolnierzach 11
EXTD=
EXTT0=
EXTT1=
EXTT2=
EXTT3=
EXTT4=
EXTT5=
EXTT6=
EXTT7=
EXTT8=
EXTT9=
EXTT10=
PLAYORDER=
